<?xml version="1.0" encoding="UTF-8"?><svg id="cd_player" xmlns="http://www.w3.org/2000/svg" viewBox="0 0 310.94127 231.16099"><defs><style>.cls-1{fill:#8798f9;}.cls-1,.cls-2,.cls-3,.cls-4,.cls-5,.cls-6{stroke:#231f20;stroke-miterlimit:10;stroke-width:2px;}.cls-7{fill:#fff;font-family:Tahoma, Tahoma;font-size:12px;}.cls-2{fill:#cfb6ff;}.cls-3{fill:none;}.cls-4{fill:#231f20;}.cls-5{fill:#071c41;}.cls-6{fill:#c6daff;}</style></defs><path id="handle" class="cls-1" d="m94.5875,55.93783c8.05933-19.9576,32.26885-34.45158,60.88313-34.45158s52.82381,14.49398,60.88313,34.45158h26.15137C234.47852,24.62119,198.56575,1,155.47064,1s-79.00789,23.62119-87.03451,54.93783h26.15137Z"/><rect id="body" class="cls-6" x="1" y="52.45886" width="308.94127" height="177.70213" rx="88.85097" ry="88.85097"/><g id="speakers"><g id="speaker2"><circle class="cls-1" cx="64.54405" cy="140.48936" r="44.23404"/><circle class="cls-5" cx="64.54405" cy="140.48936" r="33.21679"/></g><g id="speaker1"><circle class="cls-1" cx="246.46931" cy="141.55319" r="44.23404"/><circle class="cls-5" cx="246.46931" cy="141.55319" r="33.21679"/></g></g><g id="plug"><rect class="cls-2" x="122.95349" y="179.80851" width="65.10638" height="19.23404" rx="9.61701" ry="9.61701"/><circle class="cls-4" cx="155.50668" cy="189.42553" r="2.71767"/><circle class="cls-4" cx="136.7794" cy="189.42553" r="2.71767"/><circle class="cls-4" cx="174.23396" cy="189.42553" r="2.71767"/></g><g id="buttons"><rect class="cls-2" x="111.43077" y="73.23404" width="88.15182" height="19.23404" rx="9.61701" ry="9.61701"/><line class="cls-3" x1="141.79879" y1="73.23404" x2="141.79879" y2="91.51064"/><line class="cls-3" x1="171.71945" y1="73.76596" x2="171.71945" y2="92.46809"/><line class="cls-3" x1="159.00782" y1="78.22128" x2="159.00782" y2="87.41277"/><polygon class="cls-4" points="154.03138 82.81702 149.27637 85.90665 149.27637 79.7274 154.03138 82.81702"/><line class="cls-3" x1="164.24187" y1="78.22128" x2="164.24187" y2="87.41277"/><polygon class="cls-4" points="187.36227 82.81702 182.60726 85.90665 182.60726 79.7274 187.36227 82.81702"/><polygon class="cls-4" points="123.6511 82.81702 128.4061 85.90665 128.4061 79.7274 123.6511 82.81702"/></g><g id="viewer"><rect id="viewer-2" class="cls-5" x="126.0286" y="110.78723" width="58.95616" height="55.40426"/><text class="cls-7" transform="translate(140.45526 141.3102)"><tspan x="0" y="0">00:00</tspan></text></g></svg>