<?xml version="1.0" encoding="UTF-8"?><svg id="bass_button" xmlns="http://www.w3.org/2000/svg" viewBox="0 0 200 200"><defs><style>.cls-1{fill:#df0006;stroke:#231f20;stroke-miterlimit:10;stroke-width:3px;}.cls-2{fill:#ff2a30;stroke-width:0px;}.cls-3{fill:#fff;font-family:TrebuchetMS, 'Trebuchet MS';font-size:40px;}</style></defs><rect class="cls-1" x="22.15958" y="22.15958" width="155.68085" height="155.68085" rx="26.52127" ry="26.52127"/><path class="cls-2" d="m128.00507,107.99076c-.69607-.07344-2.84106-.69525-2.84106-.69525-2.35049-.91699-4.4487-2.64161-5.83912-5.04988-1.39211-2.41121-2.43288-6.95068-2.4908-9.47599-.13263-5.78292-2.89098-10.04987-6.26769-12.20761-3.80389-2.43071-6.24843-.02414-5.76681,3.2356.62979,4.26254-5.90041,8.41849-11.0733,2.42071l-25.81683-41.57947,1.88027-1.08557-5.46484-9.46538-14.76953-1.42289,9.92482,16.84049,1.88027-1.08557,21.67554,40.48625c-.53644,2.60708-7.22571,4.55282-10.73071-3.81587-.81109-1.93661-4.0189-2.87584-5.81399-.62332-7.47125,9.37508,4.75023,22.20636,8.715,25.37141,2.48645,1.88115,8.0911,6.16313,10.4018,10.35687,1.80258,3.27154,1.72725,6.61895,1.36322,9.09517,0,0-.51474,2.0883-.70303,2.55108-2.43152,7.89318-1.81699,16.46165,2.45595,23.8626,8.58724,14.87354,25.68249,14.28462,41.81307,4.97162,16.13064-9.31302,25.18824-23.82344,16.601-38.69699-4.21907-7.30764-11.20703-12.09606-19.13325-13.988Z"/><path class="cls-2" d="m55.68933,51.22486c1.03455-.5973,1.389-1.92014.79174-2.95463-.59733-1.0346-1.92014-1.389-2.95469-.79171-1.03449.59726-1.38898,1.92005-.79165,2.95466.59726,1.03449,1.92011,1.38895,2.9546.79168Z"/><path class="cls-2" d="m52.29932,45.35318c1.03455-.5973,1.389-1.92014.79174-2.95463-.5973-1.03455-1.92014-1.389-2.95469-.79171-1.03449.59726-1.38895,1.92011-.79165,2.95466.59726,1.03449,1.92011,1.38895,2.9546.79168Z"/><text class="cls-3" transform="translate(61.98224 111.90882)"><tspan x="0" y="0">Bass</tspan></text></svg>