<?xml version="1.0" encoding="UTF-8"?><svg id="tuba_button" xmlns="http://www.w3.org/2000/svg" viewBox="0 0 200 200"><defs><style>.cls-1{fill:#e29d13;stroke:#231f20;stroke-miterlimit:10;stroke-width:2px;}.cls-2{letter-spacing:-.12939em;}.cls-3{fill:#f4ba00;stroke-width:0px;}.cls-4{fill:#fff;font-family:TrebuchetMS, 'Trebuchet MS';font-size:40px;}</style></defs><rect class="cls-1" x="22.15958" y="22.15958" width="155.68088" height="155.68085" rx="26.52127" ry="26.52127"/><path class="cls-3" d="m107.16959,40.73096c.65212-1.0976.02425-2.52062-1.24795-2.62775-8.61338-.72532-15.90826,3.28456-24.13867,8.0364-7.7734,4.48798-16.00016,9.64735-19.88161,17.54591-.54259,1.10414.41452,2.34124,1.62913,2.14569,10.20175-1.64247,24.07911,15.32359,43.04037,40.36842,22.92549,31.78584,18.19845,41.15169,12.74171,43.40528-4.90179,2.02439-11.02686.15514-14.68746-5.5621l-6.88674-11.58547c-.22388-.38673-6.32488-10.40606-6.50965-10.81293-6.11319-13.461-4.70388-26.43973,2.69871-33.61564,19.91277-19.30301,34.07824-23.30732,33.33709-22.87942l-1.39706-2.43396c-9.53468,5.50485-60.39784,25.42083-43.22593,62.04556l13.51105,23.26518.05742.09302c7.32904,11.17257,20.16404,17.71131,31.09896,11.39803,10.9497-6.32181,13.9996-21.26637,7.71449-37.27868-5.14244-14.71282-35.35445-68.88309-27.85387-81.50753Z"/><path class="cls-3" d="m92.95783,102.31033l-.00007.00004c-5.90992,3.4121-8.12401,10.74417-4.92016,16.2934l12.81548,22.19706c3.20389,5.5493,10.66065,7.29782,16.57058,3.88572l.00007-.00004c5.90992-3.4121,8.12405-10.7441,4.92016-16.2934l-12.81548-22.19706c-3.20385-5.54923-10.66065-7.29782-16.57058-3.88572Zm23.93543,27.81991c1.47376,2.55262.45527,5.92539-2.26333,7.49498l-1.92463,1.11118c-2.71861,1.56959-6.14875.76524-7.6225-1.78738l-10.36891-17.95948c-1.47376-2.55262-.45527-5.92539,2.26333-7.49498l1.92463-1.11118c2.71861-1.56959,6.14875-.76524,7.6225,1.78738l10.36891,17.95948Z"/><circle class="cls-3" cx="126.76157" cy="64.1617" r="3.08736"/><text class="cls-4" transform="translate(58.39801 111.90884)"><tspan class="cls-2" x="0" y="0">T</tspan><tspan x="18.04688" y="0">uba</tspan></text></svg>