<?xml version="1.0" encoding="UTF-8"?><svg id="piano_button" xmlns="http://www.w3.org/2000/svg" viewBox="0 0 200 200"><defs><style>.cls-1{fill:#b2b2b2;stroke-width:0px;}.cls-2{fill:#9e9e9e;stroke:#231f20;stroke-miterlimit:10;stroke-width:3px;}.cls-3{letter-spacing:-.04688em;}.cls-4{fill:#fff;font-family:TrebuchetMS, 'Trebuchet MS';font-size:40px;}</style></defs><rect class="cls-2" x="22.15958" y="22.15958" width="155.68085" height="155.68085" rx="26.52127" ry="26.52127"/><polygon class="cls-1" points="130.06378 68.85104 130.06378 101.65958 124.31909 101.65958 124.31909 131.14896 145 131.14896 145 68.85104 130.06378 68.85104"/><polygon class="cls-1" points="116.14893 101.65958 116.14893 68.85104 106.9574 68.85104 106.9574 101.65958 101.21277 101.65958 101.21277 131.14896 121.89362 131.14896 121.89362 101.65958 116.14893 101.65958"/><polygon class="cls-1" points="93.04254 101.65958 93.04254 68.85104 83.9787 68.85104 83.9787 101.65958 78.10638 101.65958 78.10638 131.14896 98.78723 131.14896 98.78723 101.65958 93.04254 101.65958"/><polygon class="cls-1" points="70.06378 101.65958 70.06378 68.85104 55 68.85104 55 131.14896 75.68085 131.14896 75.68085 101.65958 70.06378 101.65958"/><text class="cls-4" transform="translate(51.90936 111.90903)"><tspan class="cls-3" x="0" y="0">P</tspan><tspan x="20.42969" y="0">iano</tspan></text></svg>