<?xml version="1.0" encoding="UTF-8"?><svg id="drums_button" xmlns="http://www.w3.org/2000/svg" viewBox="0 0 200 200"><defs><style>.cls-1{fill:#41b578;stroke:#000;}.cls-1,.cls-2{stroke-miterlimit:10;stroke-width:2px;}.cls-3{stroke-width:0px;}.cls-3,.cls-2{fill:#69c479;}.cls-2{stroke:#69c479;}.cls-4{fill:#fff;font-family:TrebuchetMS, 'Trebuchet MS';font-size:40px;}</style></defs><rect class="cls-1" x="22.15958" y="22.15958" width="155.68085" height="155.68085" rx="26.52127" ry="26.52127"/><circle class="cls-3" cx="100" cy="118.2766" r="29.10638"/><rect class="cls-3" x="131.77636" y="85.85106" width="32.42553" height="15.82979"/><line class="cls-2" x1="147.98913" y1="101.68085" x2="147.98913" y2="131.04255"/><line class="cls-2" x1="139.43594" y1="147.38298" x2="147.98913" y2="131.04255"/><line class="cls-2" x1="156.54232" y1="147.38298" x2="147.98913" y2="131.04255"/><line class="cls-2" x1="129.48115" y1="68.25532" x2="148.3628" y2="87.13697"/><ellipse class="cls-3" cx="128.18055" cy="66.95471" rx="17.28053" ry="6.06622" transform="translate(-12.26203 32.47182) rotate(-13.78522)"/><rect class="cls-3" x="35.7981" y="85.85106" width="32.42553" height="15.82979" transform="translate(104.02174 187.53191) rotate(180)"/><line class="cls-2" x1="52.01087" y1="101.68085" x2="52.01087" y2="131.04255"/><line class="cls-2" x1="60.56406" y1="147.38298" x2="52.01087" y2="131.04255"/><line class="cls-2" x1="43.45768" y1="147.38298" x2="52.01087" y2="131.04255"/><line class="cls-2" x1="70.51885" y1="68.25532" x2="51.6372" y2="87.13697"/><ellipse class="cls-3" cx="71.81945" cy="66.95471" rx="6.06622" ry="17.28053" transform="translate(-10.32003 120.7513) rotate(-76.21478)"/><text class="cls-4" transform="translate(44.33566 111.90899)"><tspan x="0" y="0">Drums</tspan></text></svg>