<?xml version="1.0" encoding="UTF-8"?><svg id="Layer_8" xmlns="http://www.w3.org/2000/svg" viewBox="0 0 200 200"><defs><style>.cls-1{fill:#d8ae00;stroke:#231f20;stroke-miterlimit:10;stroke-width:2px;}.cls-2{fill:#e0c500;stroke-width:0px;}.cls-3{fill:#fff;font-family:TrebuchetMS, 'Trebuchet MS';font-size:40px;}</style></defs><rect class="cls-1" x="22.15958" y="22.15958" width="155.68085" height="155.68085" rx="26.52127" ry="26.52127"/><path class="cls-2" d="m72.18732,43.32996l.00278.00714c.05421-.02379.10736-.04999.16258-.07148l-.16536.06434Z"/><path class="cls-2" d="m119.13011,51.25864c-16.01769-.0034-29.00359,4.20345-29.00463,9.39617-.00043,2.06377,2.05555,3.97138,5.53261,5.52272.28255,1.75252.56557,3.40581.84931,4.98768-.39972.01653-.80329.09459-1.19693.24776-1.9174.74607-2.86701,2.90531-2.12092,4.82277.73471,1.88821,2.83937,2.83421,4.73447,2.15027.71999,3.34251,1.45021,6.26924,2.1984,8.89972-.54979-.04731-1.118.02304-1.66699.23665-1.91751.74611-2.86706,2.90533-2.12097,4.82279s2.9053,2.86707,4.82281,2.12096c.39628-.15419.74843-.3714,1.05566-.63174,1.05803,2.97083,2.1605,5.63407,3.3268,8.30072-.15267.03802-.30477.08249-.45527.14105-1.9174.74607-2.86701,2.90531-2.12092,4.82277s2.90535,2.86703,4.82275,2.12096c.27191-.1058.52184-.2427.75273-.40059,3.98086,8.59836,10.77748,22.52979,1.91759,24.14099-1.22986.22365-2.42829.00255-3.59078-.52098l.16041-.06242c-.05523.02149-.11211.0381-.16814.0572l.00074.0019c-1.83079-.82661-3.57163-2.40861-5.19978-4.22855-8.08494-9.03701-10.56321-23.96758-21.49277-42.27225-13.19509-22.09888-23.77267-27.58421-30.90424-22.42982-4.12354,4.07913-2.58236,5.60521-4.64171,8.37345-1.07996,1.45171-2.11084,1.95267-2.92262,2.11409-.51394-.5877-1.35769-.82934-2.12452-.53096-.97749.38034-1.46606,1.49131-1.08571,2.46882l.73978,1.90125c.38034.97749,1.49131,1.46606,2.4688,1.08572.71767-.27925,1.1679-.95297,1.20807-1.67791,1.34759-.38717,3.17046-1.4345,4.04974-3.03293,2.59378-4.71528,2.98393-7.25251,6.24964-5.95337,3.40907,1.35618,6.56231,5.08001,9.58027,10.45946-1.61865.8842-2.37074,2.85076-1.68407,4.61553.74609,1.91746,2.90529,2.86705,4.8228,2.12094.06187-.02407.1199-.05363.17978-.0806.82509,1.83247,1.64312,3.77451,2.45655,5.81187-.1206.03343-.24069.07315-.35978.11949-1.91751.74611-2.86706,2.90533-2.12097,4.82279s2.90529,2.86705,4.8228,2.12094c.09939-.03867.19454-.08337.28868-.12944.80975,2.23201,1.61797,4.54179,2.42721,6.91409-.17535.04023-.35019.08894-.52283.15611-1.91751.74611-2.86706,2.90533-2.12097,4.82279s2.9053,2.86707,4.82281,2.12096c.05797-.02255.11213-.05036.16831-.07547.70732,2.1534,1.41751,4.3416,2.13216,6.5553-.08486.02625-.16988.05163-.25399.08436-1.91746.74609-2.86706,2.90533-2.12097,4.82279.72631,1.86663,2.79128,2.81121,4.66925,2.17195,9.46663,28.17294,21.78363,36.33269,42.14303,29.99462,14.7878-4.80222,27.40809-17.533,25.23244-36.46816-.65355-7.55038-5.5171-20.53097-8.24051-31.94105-1.95728-8.20052-.92156-14.8436,2.79652-20.96258,3.64604-1.57122,5.80849-3.52505,5.80887-5.64322.00115-5.19276-12.98301-9.40502-29.0008-9.40835Z"/><text class="cls-3" transform="translate(69.85315 111.90897)"><tspan x="0" y="0">Sax</tspan></text></svg>