<?xml version="1.0" encoding="UTF-8"?><svg id="violin_button" xmlns="http://www.w3.org/2000/svg" viewBox="0 0 200 200"><defs><style>.cls-1{fill:#a54a00;stroke-width:0px;}.cls-2{letter-spacing:-.01807em;}.cls-3{fill:#7f3808;stroke:#000;stroke-miterlimit:10;stroke-width:2px;}.cls-4{fill:#fff;font-family:TrebuchetMS, 'Trebuchet MS';font-size:40px;}</style></defs><path class="cls-3" d="m151.31915,177.84042H48.68085c-14.6473,0-26.52127-11.87398-26.52127-26.52127V48.68085c0-14.6473,11.87398-26.52127,26.52127-26.52127,10.96265,0,21.92529,0,32.88794,0,23.25012,0,46.50024,0,69.75037,0,1.76633,0,11.16193.17646,18.75337,7.7679,4.79941,4.79941,7.7679,11.42972,7.7679,18.75337v102.6383c0,14.64729-11.87398,26.52127-26.52127,26.52127Z"/><path class="cls-1" d="m144.86739,121.70475c-7.65278-11.63855-13.85102-7.82672-19.12608-14.94288-4.3656,1.81454-10.22031,1.29046-13.32015-4.07862-3.04651-5.27671-2.49282-11.39147,1.09071-14.32824-3.10247-4.1079-1.00998-6.94918-3.29228-12.39286-4.18384-9.97953-16.65059-12.12252-27.62411-7.71334l-13.56675-22.00845,1.58919-.91752-6.46555-11.19866-9.6305,5.56017,6.46555,11.19866,1.41183-.81512,12.4156,22.6808c-9.27901,7.30125-13.6355,19.14873-7.09385,27.75003,3.57321,4.69837,7.08008,4.30685,9.08639,9.04762,4.33508-1.63504,9.90746.94283,12.95397,6.21954,3.09983,5.36907.62635,10.70145-3.12789,13.5749,3.52524,8.12641-2.87502,11.58833,3.37787,24.03511,6.9996,13.93306,26.39627,17.36029,41.54431,8.61457,15.14803-8.74572,21.8783-27.25735,13.31172-40.28571Z"/><path class="cls-1" d="m57.56483,51.38145c.96637-.55794,1.29753-1.79364.73959-2.76001-.55797-.96643-1.79369-1.29749-2.76007-.73956s-1.29747,1.79361-.7395,2.76004c.55794.96637,1.79361,1.29747,2.75998.73953Z"/><path class="cls-1" d="m54.39811,45.89654c.96637-.55794,1.29753-1.79364.73959-2.76001s-1.79369-1.29749-2.76007-.73956-1.29744,1.79366-.7395,2.76004,1.79361,1.29747,2.75998.73953Z"/><path class="cls-1" d="m72.99867,42.47221c.96637-.55794,1.29753-1.79364.73956-2.76007-.55794-.96637-1.79366-1.29744-2.76004-.7395s-1.29753,1.79364-.73959,2.76001c.55797.96643,1.79369,1.29749,2.76007.73956Z"/><path class="cls-1" d="m69.83196,36.9873c.96637-.55794,1.29753-1.79364.73959-2.76001s-1.79369-1.29749-2.76007-.73956-1.29749,1.79369-.73956,2.76007,1.79366,1.29744,2.76004.7395Z"/><text class="cls-4" transform="translate(49.64831 111.9087)"><tspan class="cls-2" x="0" y="0">V</tspan><tspan x="22.77344" y="0">iolin</tspan></text></svg>