<?xml version="1.0" encoding="UTF-8"?><svg id="Layer_4" xmlns="http://www.w3.org/2000/svg" viewBox="0 0 200 200"><defs><style>.cls-1{fill:#9f8bd1;stroke-width:0px;}.cls-2{fill:#8d75af;stroke:#231f20;stroke-miterlimit:10;stroke-width:2px;}.cls-3{fill:#fff;font-family:TrebuchetMS, 'Trebuchet MS';font-size:40px;}</style></defs><rect class="cls-2" x="22.15958" y="22.15958" width="155.68085" height="155.68085" rx="26.52127" ry="26.52127"/><path class="cls-1" d="m139.5537,151.40027c-.46905-1.94541-1.2315-3.94775-2.30724-5.90598-.11999-.21842-.24856-.42634-.37353-.63875l-2.09257,4.6291-2.81517-3.95828,2.07052-4.56267c-1.0432-1.15765-2.15626-2.15915-3.3031-2.97177.42957-1.14602.39608-2.45904-.23583-3.60934-.70382-1.2812-1.97249-2.06004-3.32977-2.21296l-11.3402-20.64302c.59894-1.2275.62206-2.71598-.08176-3.99718-.90607-1.64935-2.7445-2.45997-4.50783-2.17388l-34.90718-63.54293c.39139-1.12323.34064-2.39593-.27364-3.51412-1.14942-2.09234-3.80173-2.8638-5.89406-1.71438l-7.46856,4.10284c-2.09228,1.14939-2.86375,3.8017-1.71433,5.89403.61428,1.1182,1.66121,1.84364,2.81913,2.11576l34.90718,63.54293c-1.18728,1.33482-1.48917,3.32123-.5831,4.97058.70382,1.2812,1.97257,2.06006,3.32983,2.21293l11.34017,20.64296c-.59894,1.2275-.62212,2.71601.08173,3.99727.75737,1.37867,2.16826,2.16781,3.64052,2.22784.22183,2.87016,1.14356,6.01279,2.81081,9.04776.83527,1.52048,1.79583,2.89456,2.83357,4.11008,2.06593-1.89014,6.10728-1.71643,9.91306.66276,1.69244,1.05802,3.07412,2.40563,4.08987,3.8372l3.39147-12.54878ZM74.69061,54.99788c-.84864-1.54482-.65996-3.27878.42144-3.87284s2.646.17673,3.49464,1.72155.66004,3.27881-.42136,3.87287-2.64605-.1767-3.49472-1.72158Zm6.36168,11.58043c-.84864-1.54482-.65996-3.27878.42144-3.87284s2.646.17673,3.49464,1.72155.66004,3.27881-.42136,3.87287-2.64605-.1767-3.49472-1.72158Zm6.36168,11.58043c-.84864-1.54482-.65996-3.27878.42144-3.87284s2.646.17673,3.49464,1.72155.66004,3.27881-.42136,3.87287-2.64605-.1767-3.49472-1.72158Zm6.36168,11.58043c-.84864-1.54482-.65996-3.27878.42144-3.87284s2.646.17673,3.49464,1.72155.66004,3.27881-.42136,3.87287-2.64605-.1767-3.49472-1.72158Zm6.36168,11.58043c-.84864-1.54482-.65996-3.27878.42144-3.87284s2.646.17673,3.49464,1.72155.66001,3.27875-.42139,3.87281-2.64602-.17665-3.49469-1.72152Z"/><text class="cls-3" transform="translate(53.83826 111.90885)"><tspan x="0" y="0">Flute</tspan></text></svg>