<?xml version="1.0" encoding="UTF-8"?><svg id="guitar_button" xmlns="http://www.w3.org/2000/svg" viewBox="0 0 200 200"><defs><style>.cls-1{fill:#e89f56;stroke-width:0px;}.cls-2{fill:#d8924c;stroke:#231f20;stroke-miterlimit:10;stroke-width:3px;}.cls-3{fill:#fff;font-family:TrebuchetMS, 'Trebuchet MS';font-size:40px;}</style></defs><rect class="cls-2" x="22.15958" y="22.15958" width="155.68085" height="155.68085" rx="26.52127" ry="26.52127"/><path class="cls-1" d="m128.11895,108.89993c-.69607-.07344-2.84106-.69525-2.84106-.69525-2.35049-.91699-4.4487-2.64161-5.83912-5.04987-1.39211-2.41121-1.8356-5.09405-1.45207-7.59073.62624-4.43124-.09029-8.89234-2.36092-12.82518-5.43549-9.41454-16.03355-9.36349-27.12761-4.21497l-20.47483-32.97587,1.88027-1.08557-6.77529-11.73515-10.30955,5.95222,6.77529,11.73515,1.88027-1.08557,18.32049,34.2196c-10.00587,7.03346-15.34904,16.18624-9.91356,25.60078,2.27233,3.93579,5.78102,6.78867,9.93576,8.46127l.02342.04057c2.32649.92285,4.40045,2.64087,5.7792,5.02894s1.82959,5.04312,1.46556,7.51934c0,0-.51474,2.0883-.70303,2.55108-2.43152,7.89318-1.81698,16.46165,2.45596,23.8626,8.58724,14.87354,25.68249,14.28461,41.81307,4.97161,16.13064-9.31303,25.18823-23.82345,16.60099-38.69699-4.21907-7.30764-11.20703-12.09606-19.13326-13.988Z"/><path class="cls-1" d="m56.07627,51.2015c1.03455-.5973,1.389-1.92014.79174-2.95463-.59733-1.0346-1.92014-1.389-2.95469-.79171-1.03449.59726-1.38898,1.92005-.79165,2.95466.59726,1.03449,1.92011,1.38895,2.9546.79168Z"/><path class="cls-1" d="m52.68625,45.32982c1.03455-.5973,1.389-1.92014.79174-2.95463-.5973-1.03455-1.92014-1.389-2.95469-.79171-1.03449.59726-1.38895,1.92011-.79165,2.95466.59726,1.03449,1.92011,1.38895,2.9546.79168Z"/><path class="cls-1" d="m72.59843,41.66401c1.03455-.5973,1.389-1.92014.79171-2.95469s-1.92011-1.38895-2.95466-.79165c-1.03449.59726-1.38904,1.92008-.79174,2.95463s1.9202,1.38897,2.95469.79171Z"/><path class="cls-1" d="m69.20841,35.79233c1.03455-.5973,1.38904-1.92008.79174-2.95463-.59726-1.03449-1.92014-1.389-2.95469-.79171-1.03449.59726-1.38897,1.9202-.79171,2.95469.5973,1.03455,1.92016,1.38891,2.95466.79165Z"/><text class="cls-3" transform="translate(43.62623 111.90882)"><tspan x="0" y="0">Guitar</tspan></text></svg>